# xmcd
#
# Track frame offsets: 
#        150
#        17631
#        34281
#        54160
#        72335
#        91594
#        108828
#        125434
#        140395
#        160684
#        181540
#
# Disc length: 2697 seconds
#
# Revision: 0
# Processed by: cddbd v1.5.2PL0 Copyright (c) Steve Scherf et al.
# Submitted via: ExactAudioCopyFreeDBPlugin 1.0
#
DISCID=7d0a870b
DTITLE=i☆Ris - Th!s !s i☆Ris!!
DYEAR=2016
DGENRE=JPop
TTITLE0=ドリームパレード
TTITLE1=ブライトファンタジー
TTITLE2=YuRuYuRuハッピーデイズ
TTITLE3=Over the future
TTITLE4=Secret Garden
TTITLE5=My Bright...
TTITLE6=鉄腕ガール
TTITLE7=Vampire Lady
TTITLE8=Fanfare
TTITLE9=Goin’on
TTITLE10=Raspberry night
EXTD=
EXTT0=
EXTT1=
EXTT2=
EXTT3=
EXTT4=
EXTT5=
EXTT6=
EXTT7=
EXTT8=
EXTT9=
EXTT10=
PLAYORDER=
